<svg width="32" height="33" viewBox="0 0 32 33" fill="none" xmlns="http://www.w3.org/2000/svg">
<circle cx="16" cy="16.6799" r="16" fill="#34E834"/>
<path d="M22.8177 10.6812C22.5125 10.6916 22.223 10.8298 22.0108 11.0663C19.1366 14.1684 16.2604 17.2556 13.3831 20.358L8.92707 16.3589C8.80848 16.2525 8.67159 16.1724 8.52422 16.123C8.37686 16.0736 8.22191 16.056 8.06822 16.0711C7.91452 16.0862 7.7651 16.1338 7.62849 16.2111C7.49187 16.2884 7.37073 16.394 7.27199 16.5217C7.17325 16.6495 7.09884 16.7969 7.05301 16.9556C7.00718 17.1143 6.99083 17.2812 7.00489 17.4467C7.01895 17.6122 7.06314 17.7731 7.13495 17.9203C7.20676 18.0674 7.30478 18.1978 7.4234 18.3041L12.7046 23.0438C12.9301 23.247 13.2182 23.3517 13.512 23.3371C13.8057 23.3224 14.0837 23.1896 14.2908 22.9648C17.4186 19.589 20.5482 16.2331 23.6796 12.8535C23.8507 12.6756 23.9676 12.4459 24.0147 12.1948C24.0619 11.9437 24.0371 11.6831 23.9436 11.4476C23.8501 11.212 23.6924 11.0126 23.4914 10.8757C23.2903 10.7388 23.0554 10.671 22.8177 10.6812Z" fill="black"/>
</svg>
