<svg width="54" height="54" viewBox="0 0 54 54" fill="none" xmlns="http://www.w3.org/2000/svg">
<g clip-path="url(#clip0_19_1550)">
<path d="M41.1843 45.5341C47.9957 45.5341 53.5347 39.9937 53.5347 33.1838C53.5347 26.9664 48.9183 21.8074 42.9301 20.957C43.4095 17.4744 44.7393 14.1607 46.8168 11.2872C47.2209 10.7264 47.2057 9.96655 46.7746 9.42385C46.3516 8.8898 45.6165 8.68736 44.9714 8.95948C35.169 13.051 28.8339 22.5611 28.834 33.1838C28.834 39.9937 34.3729 45.5341 41.1843 45.5341ZM13.1902 45.5341C20.0016 45.5341 25.5405 39.9937 25.5405 33.1838C25.5405 26.9664 20.9242 21.8074 14.936 20.957C15.4154 17.4744 16.7451 14.1607 18.8226 11.2872C19.2267 10.7264 19.2116 9.96655 18.7804 9.42385C18.3574 8.8898 17.6224 8.68736 16.9773 8.95948C7.17482 13.0511 0.839804 22.5611 0.839805 33.1838C0.839805 39.9937 6.37873 45.5341 13.1902 45.5341Z" fill="url(#paint0_linear_19_1550)"/>
</g>
<defs>
<linearGradient id="paint0_linear_19_1550" x1="27.1872" y1="8.83875" x2="27.1872" y2="45.5341" gradientUnits="userSpaceOnUse">
<stop stop-color="#1F2F84"/>
<stop offset="1" stop-color="#34E834"/>
</linearGradient>
<clipPath id="clip0_19_1550">
<rect width="52.6949" height="52.6949" fill="white" transform="translate(53.5347 53.5338) rotate(180)"/>
</clipPath>
</defs>
</svg>
