<svg xmlns="http://www.w3.org/2000/svg" width="83.97" height="80.03" viewBox="0 0 83.97 80.03">
  <metadata><?xpacket begin="﻿" id="W5M0MpCehiHzreSzNTczkc9d"?>
<x:xmpmeta xmlns:x="adobe:ns:meta/" x:xmptk="Adobe XMP Core 5.6-c140 79.160451, 2017/05/06-01:08:21        ">
   <rdf:RDF xmlns:rdf="http://www.w3.org/1999/02/22-rdf-syntax-ns#">
      <rdf:Description rdf:about=""/>
   </rdf:RDF>
</x:xmpmeta>
                                                                                                    
                                                                                                    
                                                                                                    
                                                                                                    
                                                                                                    
                                                                                                    
                                                                                                    
                                                                                                    
                                                                                                    
                                                                                                    
                                                                                                    
                                                                                                    
                                                                                                    
                                                                                                    
                                                                                                    
                                                                                                    
                                                                                                    
                                                                                                    
                                                                                                    
                                                                                                    
                           
<?xpacket end="w"?></metadata>
<defs>
    <style>
      .cls-1 {
        fill: #34E834;
        fill-rule: evenodd;
      }
    </style>
  </defs>
  <path class="cls-1" d="M2451.11,1793.65c0-9.03-7.64-16.39-17.03-16.39s-17.03,7.36-17.03,16.39a16.125,16.125,0,0,0,6.68,12.93v21.44l10.35-6.61,10.35,6.61v-21.45A16.079,16.079,0,0,0,2451.11,1793.65Zm-30.49,0a13.47,13.47,0,0,1,26.92,0,12.6,12.6,0,0,1-3.55,8.69l-2.48,2.1a13.842,13.842,0,0,1-14.85,0l-2.5-2.11A12.625,12.625,0,0,1,2420.62,1793.65Zm20.24,27.96-6.78-4.33-6.77,4.33v-12.59a15.359,15.359,0,0,0,13.55,0v12.59Zm-59.83-73.6v69.36h34.82v-3.43H2384.6v-62.49h76.82v62.49h-12.09v3.43h15.66v-69.36h-83.96Z" transform="translate(-2381.03 -1748)"/>
</svg>
