<svg xmlns="http://www.w3.org/2000/svg" width="107.94" height="107.94" viewBox="0 0 107.94 107.94">
  <metadata><?xpacket begin="﻿" id="W5M0MpCehiHzreSzNTczkc9d"?>
<x:xmpmeta xmlns:x="adobe:ns:meta/" x:xmptk="Adobe XMP Core 5.6-c140 79.160451, 2017/05/06-01:08:21        ">
   <rdf:RDF xmlns:rdf="http://www.w3.org/1999/02/22-rdf-syntax-ns#">
      <rdf:Description rdf:about=""/>
   </rdf:RDF>
</x:xmpmeta>
                                                                                                    
                                                                                                    
                                                                                                    
                                                                                                    
                                                                                                    
                                                                                                    
                                                                                                    
                                                                                                    
                                                                                                    
                                                                                                    
                                                                                                    
                                                                                                    
                                                                                                    
                                                                                                    
                                                                                                    
                                                                                                    
                                                                                                    
                                                                                                    
                                                                                                    
                                                                                                    
                           
<?xpacket end="w"?></metadata>
<defs>
    <style>
      .cls-1 {
        fill: #34E834;
        fill-rule: evenodd;
      }
    </style>
  </defs>
  <path class="cls-1" d="M6325.97,1745.01a53.96,53.96,0,1,0,53.97,53.96A54.026,54.026,0,0,0,6325.97,1745.01Zm0,103.46a49.5,49.5,0,1,1,49.51-49.5A49.555,49.555,0,0,1,6325.97,1848.47Zm11.86-52.26a11.271,11.271,0,0,0,5.6-4.62,13.375,13.375,0,0,0,1.97-7.18q0-6.06-3.6-9.53a13.047,13.047,0,0,0-8.38-3.38v-10.01h-4.46v9.9h-7.36v-9.9h-4.46v9.9h-5.33a2.222,2.222,0,0,0-2.28,2.27v48.42a2.206,2.206,0,0,0,2.28,2.27h5.33v16.74h4.46v-16.74h7.36v16.74h4.46v-16.83a17.167,17.167,0,0,0,10.12-3.58q4.575-3.66,4.58-11.08a13.235,13.235,0,0,0-2.88-8.85A13.828,13.828,0,0,0,6337.83,1796.21Zm-23.45-20.36h16.87a9.459,9.459,0,0,1,6.85,2.39,8.717,8.717,0,0,1,2.45,6.54q0,4.77-2.61,7.34a9.353,9.353,0,0,1-6.69,2.65h-16.87v-18.92Zm25.76,41.46a12.511,12.511,0,0,1-8.21,2.58h-17.55v-20.58h17.4a13.139,13.139,0,0,1,8.28,2.49c2.14,1.67,3.22,4.27,3.22,7.8Q6343.28,1814.745,6340.14,1817.31Z" transform="translate(-6272 -1745)"/>
</svg>
