<svg xmlns="http://www.w3.org/2000/svg" width="157.97" height="139.15" viewBox="0 0 157.97 139.15">
  <metadata><?xpacket begin="﻿" id="W5M0MpCehiHzreSzNTczkc9d"?>
<x:xmpmeta xmlns:x="adobe:ns:meta/" x:xmptk="Adobe XMP Core 5.6-c140 79.160451, 2017/05/06-01:08:21        ">
   <rdf:RDF xmlns:rdf="http://www.w3.org/1999/02/22-rdf-syntax-ns#">
      <rdf:Description rdf:about=""/>
   </rdf:RDF>
</x:xmpmeta>
                                                                                                    
                                                                                                    
                                                                                                    
                                                                                                    
                                                                                                    
                                                                                                    
                                                                                                    
                                                                                                    
                                                                                                    
                                                                                                    
                                                                                                    
                                                                                                    
                                                                                                    
                                                                                                    
                                                                                                    
                                                                                                    
                                                                                                    
                                                                                                    
                                                                                                    
                                                                                                    
                           
<?xpacket end="w"?></metadata>
<defs>
    <style>
      .cls-1 {
        fill: #34E834;
        fill-rule: evenodd;
      }
    </style>
  </defs>
  <path class="cls-1" d="M8379.33,1802.15l-4.55,4.57,11.96,12.02H8305.3v6.47h81.44l-11.96,12.02,4.55,4.57,19.71-19.83Zm-44.55-24.07v-6.46h-81.43l11.96-12.02-4.55-4.58-19.71,19.83,19.71,19.82,4.55-4.57-11.96-12.02h81.43Zm-84.64-3.23h0Zm50.01,26.66v0.13h37.58a20.079,20.079,0,0,1,15.87,7.89h7.58a26.554,26.554,0,0,0-21.65-14.22v-0.13h-37.58a20.159,20.159,0,0,1-16.99-9.39h-7.28A26.647,26.647,0,0,0,8300.15,1801.51Zm1.8-46.99h56v-6.47h-33.29v-21.1h-6.43v21.1h-16.28a26.577,26.577,0,0,0-23.81,15.01h7.4A20.135,20.135,0,0,1,8301.95,1754.52Zm35.78,87.79h-56v6.46h36.5v17.32h6.43v-17.32h13.07a26.677,26.677,0,0,0,24.59-16.51h-7.25A20.139,20.139,0,0,1,8337.73,1842.31Z" transform="translate(-8241.06 -1726.94)"/>
</svg>
