<svg xmlns="http://www.w3.org/2000/svg" width="24" height="24" viewBox="0 0 23 23" class="goto-icon">
    <path fill="rgba(0, 0, 0, 1)" d="M14,11 C14,9.891 13.109,9 12,9 C10.891,9 10,9.891 10,11 C10,12.109 10.891,13 12,13 C13.109,13 14,12.109 14,11 Z M8,11 C8,9.891 7.109,9 6,9 C4.891,9 4,9.891 4,11 C4,12.109 4.891,13 6,13 C7.109,13 8,12.109 8,11 Z M20,11 C20,9.891 19.109,9 18,9 C16.891,9 16,9.891 16,11 C16,12.109 16.891,13 18,13 C19.109,13 20,12.109 20,11 Z M11.5008214,21.0447283 C10.5635714,21.0447283 9.65260714,20.9458181 8.79257143,20.7490499 C7.66714393,21.1520631 7.88669523,21.1520631 5.96578923,22.326755 C5.67073475,22.4642122 4.65575282,22.9467401 4.27050282,22.9961952 C4.06514567,23.0288146 3.87293139,22.8478299 3.82118139,22.6016066 C3.82118139,21.8845185 3.88665664,20.5216655 4.01760714,18.5130475 C1.56646429,16.5895593 0,13.7285285 0,10.5223641 C0,4.70244454 5.14707143,0 11.5,0 C17.8529286,0 23,4.70244454 23,10.5223641 C23.0008214,16.3422838 17.85375,21.0447283 11.5008214,21.0447283 Z"></path>
</svg>