<svg width="39" height="23" viewBox="0 0 39 23" fill="none" xmlns="http://www.w3.org/2000/svg">
<g clip-path="url(#clip0_83_600)">
<path d="M18.5515 19.5665H7.22168V23.0018H18.5515V19.5665Z" fill="#34E834"/>
<path d="M30.1462 19.5665H18.8164V23.0018H30.1462V19.5665Z" fill="#1BBD1B"/>
<path d="M7.28896 23C11.3145 23 14.5779 19.6669 14.5779 15.5552C14.5779 11.4436 11.3145 8.11041 7.28896 8.11041C3.26338 8.11041 0 11.4436 0 15.5552C0 19.6669 3.26338 23 7.28896 23Z" fill="#34E834"/>
<path d="M18.2905 23C24.5089 23 29.5498 17.8513 29.5498 11.5C29.5498 5.14873 24.5089 0 18.2905 0C12.0722 0 7.03125 5.14873 7.03125 11.5C7.03125 17.8513 12.0722 23 18.2905 23Z" fill="#1BBD1B"/>
<path d="M30.1462 23.0018C35.036 23.0018 38.9999 18.9531 38.9999 13.9588C38.9999 8.96446 35.036 4.91577 30.1462 4.91577C25.2564 4.91577 21.2925 8.96446 21.2925 13.9588C21.2925 18.9531 25.2564 23.0018 30.1462 23.0018Z" fill="#189918"/>
</g>
<defs>
<clipPath id="clip0_83_600">
<rect width="39" height="23" fill="white"/>
</clipPath>
</defs>
</svg>
