<svg width="157" height="18" viewBox="0 0 157 18" fill="none" xmlns="http://www.w3.org/2000/svg">
<path d="M10.8707 0.737099V3.41632H3.86866V7.66039H9.23446V10.2922H3.86866V17.2866H0.5V0.737099H10.8707Z" fill="white"/>
<path d="M19.1786 17.5C17.8953 17.5 16.7403 17.2234 15.7137 16.6702C14.687 16.1011 13.877 15.3029 13.2834 14.2755C12.7059 13.248 12.4172 12.0625 12.4172 10.719C12.4172 9.37541 12.714 8.18991 13.3075 7.16248C13.9171 6.13505 14.7432 5.34472 15.7859 4.79149C16.8285 4.22245 17.9915 3.93794 19.2748 3.93794C20.5581 3.93794 21.7211 4.22245 22.7638 4.79149C23.8065 5.34472 24.6246 6.13505 25.2181 7.16248C25.8277 8.18991 26.1325 9.37541 26.1325 10.719C26.1325 12.0625 25.8197 13.248 25.194 14.2755C24.5845 15.3029 23.7503 16.1011 22.6916 16.6702C21.6489 17.2234 20.4779 17.5 19.1786 17.5ZM19.1786 14.6074C19.7882 14.6074 20.3576 14.4651 20.887 14.1806C21.4324 13.8803 21.8655 13.4377 22.1863 12.8529C22.5071 12.268 22.6676 11.5567 22.6676 10.719C22.6676 9.47025 22.3307 8.51395 21.657 7.85007C20.9993 7.17039 20.1892 6.83054 19.2267 6.83054C18.2642 6.83054 17.4541 7.17039 16.7965 7.85007C16.1548 8.51395 15.834 9.47025 15.834 10.719C15.834 11.9677 16.1468 12.9319 16.7724 13.6116C17.414 14.2755 18.2161 14.6074 19.1786 14.6074Z" fill="white"/>
<path d="M31.9722 6.19038C32.4053 5.49489 32.9667 4.94956 33.6565 4.55439C34.3623 4.15923 35.1644 3.96164 36.0627 3.96164V7.447H35.1724C34.1137 7.447 33.3116 7.692 32.7662 8.18201C32.2368 8.67201 31.9722 9.52557 31.9722 10.7427V17.2866H28.6035V4.15132H31.9722V6.19038Z" fill="white"/>
<path d="M50.7235 10.4344C50.7235 10.9086 50.6914 11.3354 50.6273 11.7148H40.8822C40.9624 12.6632 41.2993 13.4061 41.8928 13.9435C42.4863 14.4809 43.2162 14.7497 44.0824 14.7497C45.3336 14.7497 46.2239 14.2201 46.7533 13.1611H50.3866C50.0016 14.4256 49.2637 15.4689 48.1729 16.2908C47.0821 17.0969 45.7427 17.5 44.1546 17.5C42.8713 17.5 41.7163 17.2234 40.6897 16.6702C39.6791 16.1011 38.8851 15.3029 38.3076 14.2755C37.7461 13.248 37.4654 12.0625 37.4654 10.719C37.4654 9.3596 37.7461 8.1662 38.3076 7.13877C38.869 6.11134 39.655 5.32101 40.6656 4.76778C41.6762 4.21455 42.8392 3.93794 44.1546 3.93794C45.4219 3.93794 46.5528 4.20665 47.5473 4.74407C48.5579 5.2815 49.3359 6.04812 49.8813 7.04393C50.4428 8.02394 50.7235 9.15411 50.7235 10.4344ZM47.2345 9.48605C47.2185 8.6325 46.9057 7.95281 46.2961 7.447C45.6866 6.92538 44.9406 6.66457 44.0584 6.66457C43.2242 6.66457 42.5184 6.91748 41.9409 7.42329C41.3795 7.9133 41.0346 8.60088 40.9063 9.48605H47.2345Z" fill="white"/>
<path d="M60.5452 17.2866L57.8022 13.2085L55.3719 17.2866H51.7627L56.1179 10.6953L51.7145 4.15132H55.5163L58.2353 8.20572L60.6896 4.15132H64.2989L59.9196 10.6953L64.347 17.2866H60.5452Z" fill="white"/>
<path d="M81.2635 0.737099L75.1036 17.2866H71.0131L67.9332 9.01186L64.8533 0.737099H68.4625L73.0824 13.8961L77.6782 0.737099H81.2635Z" fill="#34E834"/>
<path d="M95.5306 5.85844C95.5306 6.74361 95.3141 7.57345 94.881 8.34798C94.4639 9.1225 93.7982 9.74686 92.8838 10.2211C91.9855 10.6953 90.8466 10.9324 89.467 10.9324H86.6518V17.2866H83.2831V0.737099H89.467C90.7664 0.737099 91.8732 0.958391 92.7876 1.40098C93.7019 1.84356 94.3837 2.45211 94.8328 3.22664C95.298 4.00116 95.5306 4.87843 95.5306 5.85844ZM89.3227 8.25314C90.2531 8.25314 90.9428 8.04765 91.392 7.63668C91.8412 7.2099 92.0657 6.61715 92.0657 5.85844C92.0657 4.24616 91.1514 3.44003 89.3227 3.44003H86.6518V8.25314H89.3227Z" fill="#34E834"/>
<path d="M103.721 17.4526C102.55 17.4526 101.492 17.255 100.545 16.8598C99.6147 16.4647 98.8768 15.8956 98.3314 15.1527C97.786 14.4098 97.5053 13.5325 97.4892 12.5209H101.099C101.147 13.2006 101.387 13.738 101.82 14.1332C102.27 14.5284 102.879 14.7259 103.649 14.7259C104.435 14.7259 105.053 14.5442 105.502 14.1806C105.951 13.8013 106.176 13.3113 106.176 12.7106C106.176 12.2206 106.023 11.8175 105.718 11.5014C105.414 11.1853 105.029 10.9403 104.563 10.7664C104.114 10.5767 103.489 10.3712 102.687 10.1499C101.596 9.8338 100.706 9.52557 100.016 9.22524C99.342 8.90911 98.7565 8.44282 98.2592 7.82636C97.778 7.1941 97.5374 6.35635 97.5374 5.31311C97.5374 4.3331 97.786 3.47954 98.2833 2.75244C98.7805 2.02534 99.4783 1.47211 100.377 1.09275C101.275 0.697582 102.302 0.5 103.457 0.5C105.189 0.5 106.593 0.918875 107.667 1.75662C108.758 2.57857 109.36 3.73245 109.472 5.21827H105.767C105.734 4.64923 105.486 4.18294 105.021 3.81939C104.571 3.44003 103.97 3.25035 103.216 3.25035C102.558 3.25035 102.029 3.41632 101.628 3.74826C101.243 4.08019 101.05 4.5623 101.05 5.19456C101.05 5.63715 101.195 6.0086 101.483 6.30893C101.788 6.59344 102.157 6.83054 102.59 7.02022C103.039 7.1941 103.665 7.39958 104.467 7.63668C105.558 7.95281 106.448 8.26894 107.138 8.58508C107.828 8.90121 108.421 9.37541 108.919 10.0077C109.416 10.6399 109.665 11.4698 109.665 12.4972C109.665 13.3824 109.432 14.2043 108.967 14.963C108.502 15.7218 107.82 16.3303 106.921 16.7887C106.023 17.2313 104.956 17.4526 103.721 17.4526Z" fill="#34E834"/>
<path d="M114.077 17.4526C113.467 17.4526 112.962 17.2708 112.561 16.9073C112.176 16.5279 111.983 16.0616 111.983 15.5084C111.983 14.9551 112.176 14.4967 112.561 14.1332C112.962 13.7538 113.467 13.5642 114.077 13.5642C114.67 13.5642 115.16 13.7538 115.545 14.1332C115.93 14.4967 116.122 14.9551 116.122 15.5084C116.122 16.0616 115.93 16.5279 115.545 16.9073C115.16 17.2708 114.67 17.4526 114.077 17.4526Z" fill="white"/>
<path d="M126.222 3.96164C127.811 3.96164 129.094 4.45955 130.072 5.45537C131.051 6.43538 131.54 7.81055 131.54 9.58089V17.2866H128.171V10.0314C128.171 8.98814 127.907 8.18991 127.377 7.63668C126.848 7.06764 126.126 6.78312 125.212 6.78312C124.281 6.78312 123.544 7.06764 122.998 7.63668C122.469 8.18991 122.204 8.98814 122.204 10.0314V17.2866H118.835V4.15132H122.204V5.78731C122.653 5.21827 123.223 4.77569 123.913 4.45955C124.618 4.12761 125.388 3.96164 126.222 3.96164Z" fill="white"/>
<path d="M147.135 10.4344C147.135 10.9086 147.103 11.3354 147.039 11.7148H137.294C137.374 12.6632 137.711 13.4061 138.305 13.9435C138.898 14.4809 139.628 14.7497 140.494 14.7497C141.746 14.7497 142.636 14.2201 143.165 13.1611H146.799C146.414 14.4256 145.676 15.4689 144.585 16.2908C143.494 17.0969 142.155 17.5 140.567 17.5C139.283 17.5 138.128 17.2234 137.102 16.6702C136.091 16.1011 135.297 15.3029 134.72 14.2755C134.158 13.248 133.877 12.0625 133.877 10.719C133.877 9.3596 134.158 8.1662 134.72 7.13877C135.281 6.11134 136.067 5.32101 137.078 4.76778C138.088 4.21455 139.251 3.93794 140.567 3.93794C141.834 3.93794 142.965 4.20665 143.959 4.74407C144.97 5.2815 145.748 6.04812 146.293 7.04393C146.855 8.02394 147.135 9.15411 147.135 10.4344ZM143.646 9.48605C143.63 8.6325 143.318 7.95281 142.708 7.447C142.098 6.92538 141.353 6.66457 140.47 6.66457C139.636 6.66457 138.93 6.91748 138.353 7.42329C137.791 7.9133 137.447 8.60088 137.318 9.48605H143.646Z" fill="white"/>
<path d="M153.516 6.87796V13.2322C153.516 13.6748 153.621 13.9988 153.829 14.2043C154.054 14.394 154.423 14.4888 154.936 14.4888H156.5V17.2866H154.383C151.543 17.2866 150.124 15.9272 150.124 13.2085V6.87796H148.536V4.15132H150.124V0.903067H153.516V4.15132H156.5V6.87796H153.516Z" fill="white"/>
</svg>
