<svg width="228" height="29" viewBox="0 0 228 29" fill="none" xmlns="http://www.w3.org/2000/svg">
<path d="M24.3114 4.6875V24.1564H20.0325V4.6875H24.3114Z" fill="#34E834"/>
<path d="M44.0156 16.7754C43.5877 21.5249 40.6353 24.7555 35.3295 24.7555C29.6814 24.7555 25.9587 20.6905 25.9587 14.529C25.9587 8.85944 29.553 4.34521 35.5006 4.34521C40.1646 4.34521 43.5663 7.29764 43.8873 11.3198H39.7153C39.2875 9.18035 37.7043 7.91808 35.4151 7.91808C31.6924 7.91808 30.2376 11.277 30.2376 14.529C30.2376 18.5511 32.2273 21.1184 35.3509 21.1184C37.9182 21.1184 39.4372 19.578 39.8009 16.7326H44.0156V16.7754Z" fill="#34E834"/>
<path d="M47.9731 24.0924V4.62354H54.0492L58.5634 17.995L62.9706 4.62354H68.9183V24.0924H64.9175V10.2503L60.1466 24.0924H56.8518L52.0381 10.4V24.0924H47.9731Z" fill="white"/>
<path d="M83.7445 24.1567V14.2297C83.7445 10.3359 80.514 9.65128 77.6899 9.62988H77.6044C73.5394 9.62988 71.3144 11.2345 71.1005 14.3794H74.7161C74.9942 12.7749 75.7216 12.2186 77.4974 12.2186C79.2731 12.2186 80.0219 12.8177 80.0219 14.1013C80.0219 15.2352 79.1234 15.4706 76.6844 15.7915L76.0854 15.8771C73.4324 16.2408 70.4586 16.8184 70.4586 20.3057C70.4586 22.9586 72.3627 24.5632 75.4649 24.5632C77.1551 24.5632 78.8238 23.9855 80.0219 22.7874V24.1567H83.7445ZM80.0219 17.2891V18.8723C80.0219 20.9047 78.6099 22.0172 76.5988 22.0172C75.2724 22.0172 74.4808 21.3112 74.4808 20.1345C74.4808 18.4016 75.9784 18.2518 77.3048 18.0379C78.2676 17.8667 79.1234 17.8025 80.0219 17.2891Z" fill="white"/>
<path d="M88.9006 24.1563V15.3418C88.9006 14.4218 89.628 13.6944 90.548 13.6944H94.1208V9.88623H90.548C87.5527 9.88623 85.1138 12.3252 85.1138 15.3418V24.1563H88.9006Z" fill="white"/>
<path d="M126.491 4.62354V9.88656H130.769V13.6948H126.491V18.6797C126.491 19.5996 127.218 20.327 128.138 20.327H130.769V24.1352H128.138C125.143 24.1352 122.704 21.6963 122.704 18.6797V4.62354H126.491Z" fill="white"/>
<path d="M108.284 9.97156L103 15.1918L108.905 24.0705H104.219L100.347 17.8019L98.7637 19.2781V24.0705H94.9769V4.60156H98.7851V15.0206L103.749 9.95017H108.284V9.97156Z" fill="white"/>
<path d="M121.399 19.7064H117.698C117.12 21.1184 116.264 21.7602 114.831 21.7602C112.755 21.7602 111.579 20.4552 111.536 18.0162H121.613V17.6311C121.613 12.689 118.917 9.56543 114.66 9.56543C110.402 9.56543 107.599 12.7318 107.599 17.1177C107.599 21.5035 110.466 24.4987 114.788 24.4987C117.997 24.4987 120.522 22.7658 121.399 19.7064ZM117.676 15.5559H111.515C111.728 13.5876 112.927 12.3895 114.638 12.3895C116.606 12.3681 117.526 13.8229 117.676 15.5559Z" fill="white"/>
<path d="M144.098 14.0797H140.504C140.29 12.6034 139.392 12.1328 137.83 12.1328C136.461 12.1328 135.648 12.6462 135.648 13.5234C135.648 14.5289 136.546 14.8071 138.215 15.1494L139.52 15.4275C141.938 15.941 144.526 16.6898 144.526 19.7064C144.526 22.723 142.109 24.4987 138.087 24.4987C134.578 24.4987 131.54 23.1081 131.497 19.4924H135.177C135.305 21.1826 136.396 21.8458 138.172 21.8458C139.755 21.8458 140.739 21.1612 140.739 20.0915C140.739 18.9362 139.67 18.6794 137.766 18.2516L137.423 18.166C134.942 17.6097 131.797 17.1818 131.797 13.8871C131.797 11.1272 134.022 9.56543 137.958 9.56543C141.21 9.56543 143.991 10.7849 144.098 14.0797Z" fill="white"/>
<path d="M4.8614 17.8237V24.2421H0.58252V17.8237H4.8614Z" fill="white"/>
<path d="M11.2797 10.3354V24.2418H7.00085V10.3354H11.2797Z" fill="white"/>
<path d="M17.6766 14.6143V24.2417H13.3977V14.6143H17.6766Z" fill="white"/>
<path d="M164.836 22.1476C163.268 24.1715 161.219 24.9396 159.252 24.9396C152.956 24.9396 149.25 20.2392 149.25 14.3686C149.25 8.49797 152.956 3.62646 159.252 3.62646C163.411 3.62646 167.344 6.19166 167.829 10.8064H163.555C163.041 8.55574 161.362 7.3876 159.252 7.3876C155.235 7.3876 153.724 10.8064 153.724 14.3686C153.724 17.9308 155.235 21.1784 159.252 21.1784C162.158 21.1784 163.839 19.6124 164.096 16.7904H159.595V13.4572H168.142V24.4561H165.292L164.836 22.1476Z" fill="#34E834"/>
<path d="M170.022 4.10986H174.068V24.4538H170.022V4.10986Z" fill="#34E834"/>
<path d="M182.985 9.32568C187.629 9.32568 190.62 12.4022 190.62 17.1047C190.62 21.8072 187.629 24.8537 182.985 24.8537C178.34 24.8537 175.377 21.7772 175.377 17.1047C175.377 12.4322 178.368 9.32568 182.985 9.32568ZM182.985 21.805C185.749 21.805 186.575 19.441 186.575 17.1047C186.575 14.7684 185.749 12.3744 182.985 12.3744C180.22 12.3744 179.422 14.7385 179.422 17.1047C179.422 19.4709 180.248 21.805 182.985 21.805Z" fill="#34E834"/>
<path d="M191.818 4.10986H195.864V11.5187H195.922C196.919 10.0083 198.742 9.32582 200.567 9.32582C203.502 9.32582 206.664 11.6899 206.664 17.0749C206.664 22.4599 203.502 24.8539 200.567 24.8539C198.401 24.8539 196.606 24.1992 195.723 22.5754H195.665V24.4559H191.818V4.10986ZM199.169 12.3724C196.775 12.3724 195.723 14.6231 195.723 17.1027C195.723 19.5823 196.778 21.803 199.169 21.803C201.561 21.803 202.616 19.5524 202.616 17.1027C202.616 14.653 201.561 12.3724 199.169 12.3724Z" fill="#34E834"/>
<path d="M207.631 14.255C207.86 10.466 211.249 9.32568 214.554 9.32568C217.49 9.32568 221.022 9.98035 221.022 13.5147V21.1803C221.022 22.5196 221.165 23.8589 221.535 24.458H217.432C217.289 24.0023 217.175 23.5166 217.147 23.0331C215.866 24.3724 213.985 24.8559 212.19 24.8559C209.398 24.8559 207.176 23.4588 207.176 20.4401C207.176 17.1068 209.683 16.3088 212.19 15.9665C214.67 15.5964 216.976 15.682 216.976 14.0282C216.976 12.2909 215.78 12.0342 214.356 12.0342C212.817 12.0342 211.82 12.6611 211.677 14.2571H207.631V14.255ZM216.976 17.2459C216.292 17.8449 214.867 17.8728 213.615 18.1017C212.362 18.3584 211.221 18.7863 211.221 20.2668C211.221 21.7473 212.389 22.1474 213.701 22.1474C216.863 22.1474 216.978 19.6399 216.978 18.7563V17.2459H216.976Z" fill="#34E834"/>
<path d="M222.847 4.10986H226.893V24.4538H222.847V4.10986Z" fill="#34E834"/>
</svg>
