<svg width="169" height="30" viewBox="0 0 169 30" fill="none" xmlns="http://www.w3.org/2000/svg">
<path d="M49.4364 11.0344H52.4867V23.9079H49.9511L43.2976 16.0919V23.9079H40.2473V11.0344H42.8019L49.4364 18.8506V11.0344Z" fill="white"/>
<path d="M67.2353 11.0344L62.0498 19.3471V23.9079H58.9612V19.3103L53.7949 11.0344H57.0739L60.639 16.754L64.2041 11.0344H67.2353Z" fill="white"/>
<path d="M74.3368 24.1287C70.1999 24.1287 67.1115 21.3517 67.1115 17.4712C67.1115 13.5908 70.1999 10.8138 74.3558 10.8138C76.6627 10.8138 78.5882 11.623 79.8464 13.0943L77.8637 14.8598C76.9677 13.8667 75.8429 13.3517 74.5084 13.3517C72.011 13.3517 70.238 15.0437 70.238 17.4712C70.238 19.8989 72.011 21.5908 74.5084 21.5908C75.8429 21.5908 76.9677 21.0758 77.8637 20.0643L79.8464 21.8299C78.5882 23.3195 76.6627 24.1287 74.3368 24.1287Z" fill="white"/>
<path d="M86.2026 24.0183C84.2008 24.0183 82.2372 23.3379 81.2458 22.3448L81.7988 21.2965C82.752 22.1976 84.4487 22.8598 86.2026 22.8598C88.7001 22.8598 89.7867 21.8483 89.7867 20.5793C89.7867 17.0482 81.57 19.2183 81.57 14.4551C81.57 12.5609 83.0951 10.9241 86.4886 10.9241C87.9947 10.9241 89.5579 11.3471 90.6256 12.0644L90.149 13.1493C89.0051 12.4321 87.6706 12.0828 86.4886 12.0828C84.0484 12.0828 82.9617 13.1309 82.9617 14.4183C82.9617 17.9494 91.1785 15.8161 91.1785 20.5057C91.1785 22.4 89.6151 24.0183 86.2026 24.0183Z" fill="white"/>
<path d="M95.6627 22.731H103.689V23.9079H94.252V11.0344H103.403V12.2114H95.6627V16.7908H102.564V17.9493H95.6627V22.731Z" fill="white"/>
<path d="M117.662 23.9079H116.118L113.068 19.7701C112.725 19.8069 112.382 19.8253 112 19.8253H108.416V23.9079H107.005V11.0344H112C115.394 11.0344 117.453 12.6896 117.453 15.4482C117.453 17.4712 116.347 18.8872 114.402 19.4942L117.662 23.9079ZM111.962 18.6666C114.631 18.6666 116.042 17.4712 116.042 15.4482C116.042 13.3884 114.631 12.2114 111.962 12.2114H108.416V18.6666H111.962Z" fill="white"/>
<path d="M130.448 11.0344H131.878L125.968 23.9079H124.576L118.666 11.0344H120.191L125.301 22.216L130.448 11.0344Z" fill="white"/>
<path d="M135.225 22.731H143.251V23.9079H133.815V11.0344H142.966V12.2114H135.225V16.7908H142.127V17.9493H135.225V22.731Z" fill="white"/>
<path d="M157.225 23.9079H155.68L152.631 19.7701C152.287 19.8069 151.944 19.8253 151.563 19.8253H147.978V23.9079H146.568V11.0344H151.563C154.956 11.0344 157.015 12.6896 157.015 15.4482C157.015 17.4712 155.91 18.8872 153.964 19.4942L157.225 23.9079ZM151.524 18.6666C154.194 18.6666 155.605 17.4712 155.605 15.4482C155.605 13.3884 154.194 12.2114 151.524 12.2114H147.978V18.6666H151.524Z" fill="white"/>
<path d="M164.024 24.0183C162.022 24.0183 160.059 23.3379 159.067 22.3448L159.62 21.2965C160.573 22.1976 162.271 22.8598 164.024 22.8598C166.521 22.8598 167.608 21.8483 167.608 20.5793C167.608 17.0482 159.391 19.2183 159.391 14.4551C159.391 12.5609 160.917 10.9241 164.31 10.9241C165.816 10.9241 167.38 11.3471 168.447 12.0644L167.97 13.1493C166.826 12.4321 165.493 12.0828 164.31 12.0828C161.87 12.0828 160.783 13.1309 160.783 14.4183C160.783 17.9494 169 15.8161 169 20.5057C169 22.4 167.437 24.0183 164.024 24.0183Z" fill="white"/>
<path d="M9.6514 11.3793L18.2304 0V29.9999L9.6514 24.8276V11.3793Z" fill="url(#paint0_linear_869_448)"/>
<path d="M20.3751 15.5172L27.8818 9.31033V24.8276L20.3751 30V15.5172Z" fill="url(#paint1_linear_869_448)"/>
<path d="M0 8.27584L7.50662 11.3793V29.9999L0 24.8276V8.27584Z" fill="url(#paint2_linear_869_448)"/>
<defs>
<linearGradient id="paint0_linear_869_448" x1="-299.895" y1="9.64289" x2="-298.238" y2="58.0229" gradientUnits="userSpaceOnUse">
<stop stop-color="#00FFAA"/>
<stop offset="0.517251" stop-color="#4579F5"/>
<stop offset="0.999815" stop-color="#9C42F5"/>
</linearGradient>
<linearGradient id="paint1_linear_869_448" x1="-584.158" y1="0.482179" x2="-581.113" y2="70.5828" gradientUnits="userSpaceOnUse">
<stop stop-color="#00FFAA"/>
<stop offset="0.517251" stop-color="#4579F5"/>
<stop offset="0.999815" stop-color="#9C42F5"/>
</linearGradient>
<linearGradient id="paint2_linear_869_448" x1="-5.57222" y1="9.64291" x2="16.8813" y2="42.9365" gradientUnits="userSpaceOnUse">
<stop stop-color="#00FFAA"/>
<stop offset="0.517251" stop-color="#4579F5"/>
<stop offset="0.999815" stop-color="#9C42F5"/>
</linearGradient>
</defs>
</svg>