<svg width="25" height="25" viewBox="0 0 25 25" fill="none" xmlns="http://www.w3.org/2000/svg">
<mask id="mask0_458_1163" style="mask-type:luminance" maskUnits="userSpaceOnUse" x="0" y="0" width="25" height="25">
<path d="M25 0H0V25H25V0Z" fill="white"/>
</mask>
<g mask="url(#mask0_458_1163)">
<path d="M12.5 0C5.59 0 0 5.59 0 12.5C0 19.41 5.59 25 12.5 25C19.41 25 25 19.41 25 12.5C25 5.59 19.41 0 12.5 0ZM12.5 23.33C6.53 23.33 1.67 18.47 1.67 12.5C1.67 6.53 6.53 1.67 12.5 1.67C18.47 1.67 23.33 6.53 23.33 12.5C23.33 18.47 18.47 23.33 12.5 23.33Z" fill="#00DF82"/>
<path d="M18.13 11.67H13.33V6.87004C13.33 6.41004 12.96 6.04004 12.5 6.04004C12.04 6.04004 11.67 6.41004 11.67 6.87004V11.67H6.87004C6.41004 11.67 6.04004 12.04 6.04004 12.5C6.04004 12.96 6.41004 13.33 6.87004 13.33H11.67V18.13C11.67 18.59 12.04 18.96 12.5 18.96C12.96 18.96 13.33 18.59 13.33 18.13V13.33H18.13C18.59 13.33 18.96 12.96 18.96 12.5C18.96 12.04 18.59 11.67 18.13 11.67Z" fill="#00DF82"/>
</g>
</svg>
