<svg width="49" height="42" viewBox="0 0 49 42" fill="none" xmlns="http://www.w3.org/2000/svg">
<path d="M46.55 0.5H2.45C1.80044 0.500716 1.17769 0.760124 0.718376 1.22131C0.259067 1.68249 0.000713341 2.30779 0 2.96V39.04C0.000713341 39.6922 0.259067 40.3175 0.718376 40.7787C1.17769 41.2399 1.80044 41.4993 2.45 41.5H46.55C47.1996 41.4993 47.8223 41.2399 48.2816 40.7787C48.7409 40.3175 48.9993 39.6922 49 39.04V2.96C48.9993 2.30779 48.7409 1.68249 48.2816 1.22131C47.8223 0.760124 47.1996 0.500716 46.55 0.5ZM2.45 2.14H46.55C46.7666 2.14013 46.9742 2.22656 47.1273 2.38032C47.2805 2.53407 47.3665 2.74256 47.3667 2.96V7.06H1.63333V2.96C1.63353 2.74258 1.71963 2.53413 1.87274 2.38039C2.02586 2.22665 2.23347 2.1402 2.45 2.14ZM46.55 39.86H2.45C2.23347 39.8598 2.02586 39.7733 1.87274 39.6196C1.71963 39.4659 1.63353 39.2574 1.63333 39.04V8.7H47.3667V39.04C47.3665 39.2574 47.2805 39.4659 47.1273 39.6197C46.9742 39.7734 46.7666 39.8599 46.55 39.86ZM41.65 4.6C41.65 4.27564 41.7458 3.95856 41.9253 3.68886C42.1047 3.41917 42.3598 3.20897 42.6583 3.08484C42.9567 2.96071 43.2851 2.92823 43.602 2.99151C43.9188 3.05479 44.2099 3.21099 44.4383 3.44035C44.6667 3.6697 44.8223 3.96192 44.8853 4.28005C44.9483 4.59818 44.916 4.92793 44.7923 5.2276C44.6687 5.52727 44.4594 5.7834 44.1908 5.96361C43.9222 6.14382 43.6064 6.24 43.2833 6.24C42.8501 6.24 42.4347 6.06721 42.1284 5.75965C41.8221 5.4521 41.65 5.03496 41.65 4.6ZM37.5667 4.6C37.5667 4.27564 37.6625 3.95856 37.8419 3.68886C38.0214 3.41917 38.2765 3.20897 38.575 3.08484C38.8734 2.96071 39.2018 2.92823 39.5187 2.99151C39.8355 3.05479 40.1265 3.21099 40.3549 3.44035C40.5834 3.6697 40.7389 3.96192 40.8019 4.28005C40.865 4.59818 40.8326 4.92793 40.709 5.2276C40.5854 5.52727 40.376 5.7834 40.1074 5.96361C39.8388 6.14382 39.523 6.24 39.2 6.24C38.7668 6.24 38.3514 6.06721 38.0451 5.75965C37.7387 5.4521 37.5667 5.03496 37.5667 4.6ZM4.9 4.6C4.9 4.38252 4.98604 4.17395 5.1392 4.02017C5.29235 3.86639 5.50007 3.78 5.71667 3.78H31.85C32.0666 3.78 32.2743 3.86639 32.4275 4.02017C32.5806 4.17395 32.6667 4.38252 32.6667 4.6C32.6667 4.81748 32.5806 5.02605 32.4275 5.17983C32.2743 5.33361 32.0666 5.42 31.85 5.42H5.71667C5.50007 5.42 5.29235 5.33361 5.1392 5.17983C4.98604 5.02605 4.9 4.81748 4.9 4.6ZM26.6094 13.1323C26.3929 12.764 26.0845 12.4588 25.7146 12.2467C25.3447 12.0347 24.9261 11.9231 24.5002 11.9231C24.0743 11.9231 23.6557 12.0347 23.2858 12.2467C22.9159 12.4588 22.6075 12.764 22.391 13.1323L10.7415 32.9271C10.5216 33.3007 10.404 33.7261 10.4007 34.16C10.3974 34.5939 10.5085 35.021 10.7226 35.3979C10.9368 35.7748 11.2465 36.0881 11.6202 36.3061C11.9939 36.524 12.4184 36.6388 12.8506 36.6388H36.1494C36.5816 36.6389 37.0062 36.5241 37.38 36.3062C37.7537 36.0883 38.0634 35.775 38.2777 35.3981C38.4919 35.0212 38.603 34.594 38.5997 34.1601C38.5964 33.7261 38.4789 33.3008 38.259 32.9271L26.6094 13.1323ZM36.8586 34.5853C36.7885 34.7119 36.6856 34.8172 36.5608 34.8899C36.436 34.9627 36.2939 35.0002 36.1496 34.9985H12.8506C12.7065 34.9985 12.565 34.9602 12.4404 34.8876C12.3159 34.8149 12.2126 34.7105 12.1412 34.5848C12.0698 34.4592 12.0328 34.3168 12.0339 34.1722C12.035 34.0276 12.0742 33.8858 12.1475 33.7612L23.797 13.9665C23.8691 13.8435 23.9718 13.7417 24.0951 13.6709C24.2184 13.6001 24.358 13.5628 24.5 13.5628C24.642 13.5628 24.7816 13.6001 24.9049 13.6709C25.0282 13.7417 25.131 13.8435 25.203 13.9665L36.8521 33.7612C36.9271 33.8852 36.9673 34.0273 36.9685 34.1724C36.9696 34.3175 36.9317 34.4601 36.8586 34.5853ZM25.4661 30.4981C25.6702 30.7942 25.7795 31.1457 25.7795 31.5058C25.7795 31.8659 25.6702 32.2175 25.4661 32.5136C25.3146 32.6353 25.1397 32.7242 24.9524 32.7749C24.7651 32.8256 24.5694 32.8368 24.3775 32.808C24.2245 32.8185 24.0709 32.7978 23.926 32.7472C23.7812 32.6965 23.648 32.617 23.5345 32.5133C23.3304 32.2172 23.221 31.8656 23.221 31.5055C23.221 31.1454 23.3304 30.7938 23.5345 30.4977C23.8164 30.2959 24.154 30.1874 24.5002 30.1875C24.8464 30.1876 25.1843 30.2961 25.4661 30.4981ZM23.2598 20.8863C23.0537 19.077 25.9462 19.0785 25.7218 20.8863L25.1915 27.8835C25.1534 28.3655 24.9261 28.6063 24.5096 28.6058C24.0798 28.6058 23.8461 28.365 23.8085 27.8835L23.2598 20.8863Z" fill="#34E834"/>
</svg>
