<svg width="37" height="41" viewBox="0 0 37 41" fill="none" xmlns="http://www.w3.org/2000/svg">
<path d="M10.963 14.3556V12.306C10.9625 12.1709 11.0027 12.0387 11.0784 11.9266C11.1542 11.8146 11.262 11.7278 11.3878 11.6775C11.5126 11.6254 11.6501 11.6112 11.7829 11.6367C11.9158 11.6623 12.0382 11.7263 12.1346 11.821L14.1902 13.8705C14.2545 13.9341 14.3056 14.0098 14.3405 14.0931C14.3754 14.1765 14.3935 14.2659 14.3937 14.3562C14.3939 14.4465 14.3762 14.536 14.3416 14.6194C14.307 14.7029 14.2562 14.7788 14.1922 14.8426C14.1281 14.9065 14.052 14.9571 13.9683 14.9916C13.8846 15.0261 13.7949 15.0438 13.7043 15.0436C13.6137 15.0434 13.524 15.0254 13.4405 14.9905C13.3569 14.9557 13.281 14.9048 13.2172 14.8407L12.3333 13.9525V14.3556C12.3358 15.9856 12.9863 17.5481 14.1422 18.7007C15.2982 19.8533 16.8653 20.5019 18.5 20.5043C18.6817 20.5043 18.856 20.5763 18.9845 20.7044C19.113 20.8325 19.1852 21.0063 19.1852 21.1875C19.1852 21.3687 19.113 21.5425 18.9845 21.6706C18.856 21.7987 18.6817 21.8707 18.5 21.8707C16.5014 21.8695 14.585 21.0774 13.1718 19.6683C11.7586 18.2592 10.9642 16.3484 10.963 14.3556ZM37 19.8211V37.584C36.9997 38.4899 36.6386 39.3586 35.9962 39.9991C35.3538 40.6397 34.4826 40.9997 33.5741 41H3.42593C2.51741 40.9997 1.64621 40.6397 1.00379 39.9991C0.361379 39.3586 0.000328703 38.4899 0 37.584V19.8211C0.000328703 18.9152 0.361379 18.0466 1.00379 17.406C1.64621 16.7655 2.51741 16.4055 3.42593 16.4052H8.90741C9.08913 16.4052 9.26341 16.4771 9.39191 16.6053C9.5204 16.7334 9.59259 16.9072 9.59259 17.0884C9.59259 17.2695 9.5204 17.4433 9.39191 17.5714C9.26341 17.6996 9.08913 17.7715 8.90741 17.7715H3.42593C3.20633 17.7751 2.9888 17.8144 2.78185 17.8877L17.7052 29.7889C17.9325 29.9649 18.2122 30.0604 18.5 30.0604C18.7878 30.0604 19.0675 29.9649 19.2948 29.7889L34.2181 17.8877C34.0112 17.8144 33.7937 17.7751 33.5741 17.7715H15.7593C15.5775 17.7715 15.4033 17.6996 15.2748 17.5714C15.1463 17.4433 15.0741 17.2695 15.0741 17.0884C15.0741 16.9072 15.1463 16.7334 15.2748 16.6053C15.4033 16.4771 15.5775 16.4052 15.7593 16.4052H24.3054C24.5438 15.748 24.666 15.0545 24.6667 14.3556C24.6607 13.036 24.2321 11.7529 23.4434 10.6932C22.6547 9.63353 21.5471 8.85277 20.2822 8.46475C19.5711 8.25957 18.9461 7.82972 18.5011 7.23986C18.0562 6.64999 17.8153 5.93201 17.8148 5.19391V3.98182C17.3577 3.82064 16.9724 3.50352 16.7271 3.08649C16.4817 2.66947 16.3921 2.17939 16.4742 1.70288C16.5562 1.22637 16.8045 0.794113 17.1752 0.4825C17.546 0.170887 18.0152 -1.45033e-05 18.5001 9.23104e-10C18.985 1.45051e-05 19.4543 0.170945 19.825 0.48258C20.1957 0.794215 20.444 1.22649 20.526 1.703C20.608 2.17952 20.5184 2.66959 20.273 3.0866C20.0277 3.50361 19.6423 3.82071 19.1852 3.98186V5.19391C19.1871 5.63797 19.3336 6.06941 19.6026 6.42328C19.8717 6.77716 20.2487 7.03433 20.677 7.15608C22.2232 7.63014 23.577 8.58426 24.5412 9.87934C25.5054 11.1744 26.0295 12.7427 26.037 14.3556C26.0353 15.0491 25.9362 15.739 25.7427 16.4052H33.5741C34.4826 16.4055 35.3538 16.7655 35.9962 17.406C36.6386 18.0466 36.9997 18.9152 37 19.8211ZM17.8148 2.05818C17.8148 2.1933 17.855 2.32539 17.9303 2.43774C18.0056 2.55009 18.1126 2.63766 18.2378 2.68937C18.363 2.74107 18.5008 2.7546 18.6337 2.72824C18.7666 2.70188 18.8887 2.63681 18.9845 2.54127C19.0803 2.44572 19.1456 2.32399 19.172 2.19146C19.1985 2.05894 19.1849 1.92157 19.133 1.79673C19.0812 1.6719 18.9933 1.5652 18.8807 1.49013C18.768 1.41506 18.6355 1.37499 18.5 1.37499C18.3183 1.37523 18.1442 1.44728 18.0158 1.57535C17.8873 1.70342 17.8151 1.87706 17.8148 2.05818ZM1.6787 38.6498L14.1491 28.7026L1.6787 18.7553C1.4793 19.0754 1.37258 19.4443 1.37037 19.8211V37.584C1.37258 37.9609 1.4793 38.3297 1.6787 38.6498ZM34.2181 39.5175L21.7546 29.5771L20.1513 30.8615C19.6816 31.2331 19.0996 31.4354 18.5 31.4354C17.9004 31.4354 17.3184 31.2331 16.8487 30.8615L15.2454 29.5771L2.78185 39.5175C2.9888 39.5908 3.20633 39.63 3.42593 39.6336H33.5741C33.7937 39.63 34.0112 39.5908 34.2181 39.5175ZM35.6296 19.8211C35.6274 19.4443 35.5207 19.0754 35.3213 18.7553L22.8509 28.7026L35.3213 38.6498C35.5207 38.3297 35.6274 37.9609 35.6296 37.584V19.8211Z" fill="#34E834"/>
</svg>
