<svg width="151" height="35" viewBox="0 0 151 35" fill="none" xmlns="http://www.w3.org/2000/svg">
<path d="M11.8249 28.4296C10.6806 28.4296 8.51903 28.1123 8.51903 25.1297C8.5826 23.6067 8.8369 22.1472 9.28193 20.6877C10.4898 17.2609 12.715 16.5629 14.1772 16.5629H20.9797L21.9333 11.1689H13.6686C10.2991 11.1054 6.99323 12.3111 4.38666 14.4687C1.58937 17.0071 0 21.5761 0 25.0028C0 28.7469 1.58937 34.0139 9.0912 34.0139H17.4195L18.5639 28.3027L11.8249 28.4296Z" fill="#ED2224"/>
<path d="M16.594 0L15.1953 6.98043H26.8295L21.5528 34.1407H31.3433L36.5565 6.98043H47.9364L49.335 0H16.594Z" fill="black"/>
<path d="M147.622 12.3107C146.223 11.4858 145.015 11.2954 142.218 11.2954H108.587L107.442 17.1336C107.188 16.3086 106.87 15.4837 106.362 14.7856C105.789 13.9606 105.027 13.2626 104.137 12.7549C103.31 12.2473 102.42 11.8665 101.466 11.6761C100.576 11.4858 99.6227 11.3588 98.7327 11.2954H86.2084L82.4575 30.206L79.4695 11.2319H67.9624L56.8368 31.4752L56.7733 27.2869C56.7733 26.2716 56.3918 25.2563 55.6925 24.4948C54.9932 23.7967 54.1031 23.416 53.0859 23.289V23.2256C54.3574 23.0352 55.5653 22.591 56.5825 21.893C58.4262 20.7507 59.507 18.7835 59.507 16.6259C59.5706 14.7856 58.4898 13.0722 56.8368 12.2473C55.7561 11.6761 54.4846 11.3588 53.2767 11.2954H38.5909L37.5101 16.6259H47.7456C48.3178 16.6259 50.6065 16.6259 50.6065 18.5297C50.6065 19.3546 50.2251 20.1796 49.4622 20.6238C48.5085 21.068 47.4913 21.2584 46.4106 21.1315H36.6836L34.1406 34.077H42.4054L43.9947 26.0178H45.902C46.5377 25.9543 47.237 26.1447 47.6821 26.5889C48.0635 27.0966 48.1907 27.7311 48.1271 28.3023L47.8728 34.0135H64.0844L66.1188 29.6984H73.557L73.8749 34.0135H94.0917C97.4612 34.077 100.767 32.8713 103.374 30.6502C104.009 30.0791 104.518 29.4445 105.027 28.8099L104.009 34.0135H122.192L123.336 28.1119H113.609L114.245 25.0024H122.383L123.4 19.7354H115.262L115.898 16.4355H138.213C139.611 16.4355 141.137 16.7528 141.137 18.2758C141.137 19.9892 139.738 20.9411 138.085 20.9411H126.833L124.29 33.8866H132.872L134.462 25.8274H136.369C137.005 25.7639 137.704 25.9543 138.213 26.3985C138.531 26.9062 138.721 27.5408 138.658 28.1119L138.403 33.8232H147.304L147.24 27.16C147.304 26.0178 146.859 24.8755 146.032 24.0506C145.333 23.4794 144.507 23.0987 143.617 22.9718V22.9083C145.142 22.7179 146.541 22.0833 147.749 21.1315C149.211 19.9257 150.101 18.1489 150.101 16.2452C150.101 14.7856 149.148 13.1357 147.622 12.3107ZM68.9796 23.9236L72.4127 16.499H72.5398L73.112 23.9236H68.9796ZM97.9698 24.4313C96.7619 27.9215 94.5367 28.2388 93.1381 28.2388H91.5487L93.8374 16.5624H95.4903C96.6347 16.5624 98.7962 16.8163 98.7962 19.7988C98.7327 21.4488 98.4784 22.9718 97.9698 24.4313Z" fill="black"/>
</svg>
