<svg width="61" height="60" viewBox="0 0 61 60" fill="none" xmlns="http://www.w3.org/2000/svg">
<circle cx="30.5" cy="30" r="30" fill="#34E834"/>
<g clip-path="url(#clip0_2475_332)">
<path d="M42.6163 17.4089H18.3837C16.2422 17.4089 14.5 19.1512 14.5 21.2927V35.1336H46.5V21.2927C46.5 19.1512 44.7578 17.4089 42.6163 17.4089ZM19.2838 20.116H21.9947C22.5137 20.116 22.9344 20.5367 22.9344 21.0556C22.9344 21.5746 22.5137 21.9953 21.9947 21.9953H19.2838C18.7648 21.9953 18.3441 21.5746 18.3441 21.0556C18.3441 20.5367 18.7648 20.116 19.2838 20.116ZM19.2838 23.8746H21.9947C22.5137 23.8746 22.9344 24.2953 22.9344 24.8143C22.9344 25.3332 22.5137 25.7539 21.9947 25.7539H19.2838C18.7648 25.7539 18.3441 25.3332 18.3441 24.8143C18.3441 24.2953 18.7648 23.8746 19.2838 23.8746ZM19.2838 27.6333H21.9947C22.5137 27.6333 22.9344 28.054 22.9344 28.5729C22.9344 29.0919 22.5137 29.5126 21.9947 29.5126H19.2838C18.7648 29.5126 18.3441 29.0919 18.3441 28.5729C18.3441 28.0539 18.7648 27.6333 19.2838 27.6333ZM42.6137 24.0849L40.3423 29.4885C40.1957 29.8373 39.8543 30.0641 39.476 30.0641H37.1786L34.7262 32.9412C34.5459 33.1526 34.2835 33.2712 34.0111 33.2713C33.9555 33.2713 33.8996 33.2664 33.8438 33.2563C33.5146 33.1967 33.2418 32.9666 33.1277 32.6521L31.107 27.0831L28.807 32.6883C28.6761 33.0075 28.3806 33.2293 28.0375 33.2659C27.6944 33.3026 27.3588 33.1481 27.1633 32.8638L25.7336 30.7835L24.3038 32.8638C24.1285 33.1188 23.8389 33.2712 23.5294 33.2712H19.2523C18.7334 33.2712 18.3126 32.8505 18.3126 32.3316C18.3126 31.8126 18.7334 31.3919 19.2523 31.3919H23.035L24.9592 28.5922C25.1345 28.3372 25.4241 28.1848 25.7336 28.1848C26.0431 28.1848 26.3327 28.3372 26.508 28.5922L27.728 30.3674L30.2916 24.1199C30.4389 23.7607 30.7932 23.5303 31.1803 23.5371C31.5685 23.5451 31.9117 23.7911 32.0442 24.1561L34.3435 30.493L36.0298 28.5149C36.2083 28.3054 36.4697 28.1848 36.7449 28.1848H38.8517L40.8813 23.3566C41.0823 22.8781 41.6332 22.6534 42.1117 22.8545C42.59 23.0556 42.8148 23.6064 42.6137 24.0849Z" fill="black"/>
<path d="M14.5 36.9626V38.1625C14.5 40.304 16.2422 42.0463 18.3837 42.0463H42.6163C44.7577 42.0463 46.5 40.304 46.5 38.1625V36.9626H14.5Z" fill="black"/>
</g>
<defs>
<clipPath id="clip0_2475_332">
<rect width="32" height="27" fill="white" transform="translate(14.5 16.5)"/>
</clipPath>
</defs>
</svg>
