<svg width="61" height="60" viewBox="0 0 61 60" fill="none" xmlns="http://www.w3.org/2000/svg">
<circle cx="30.8333" cy="30" r="30" fill="#34E834"/>
<g clip-path="url(#clip0_2475_307)">
<path d="M27.7905 32.3761H26.2661V30.8514C26.2661 30.2689 25.7938 29.7966 25.2113 29.7966C24.6287 29.7966 24.1565 30.2689 24.1565 30.8514V32.3761H22.632C22.0494 32.3761 21.5772 32.8483 21.5772 33.4309V38.5892C21.5772 39.1717 22.0494 39.644 22.632 39.644H24.1565V41.2546C24.1565 41.8371 24.6287 42.3094 25.2113 42.3094C25.7938 42.3094 26.2661 41.8371 26.2661 41.2546V39.644H27.7905C28.373 39.644 28.8453 39.1717 28.8453 38.5892V33.4309C28.8453 32.8483 28.373 32.3761 27.7905 32.3761Z" fill="black"/>
<path d="M37.3678 27.2173H35.8434V25.6927C35.8434 25.1102 35.3711 24.6379 34.7886 24.6379C34.2061 24.6379 33.7338 25.1102 33.7338 25.6927V27.2173H32.2093C31.6268 27.2173 31.1545 27.6896 31.1545 28.2721V33.4304C31.1545 34.013 31.6268 34.4852 32.2093 34.4852H33.7338V41.2547C33.7338 41.8372 34.2061 42.3095 34.7886 42.3095C35.3711 42.3095 35.8434 41.8372 35.8434 41.2547V34.4852H37.3678C37.9504 34.4852 38.4226 34.013 38.4226 33.4304V28.2721C38.4226 27.6896 37.9504 27.2173 37.3678 27.2173Z" fill="black"/>
<path d="M46.9452 19.5223H45.4207V17.9977C45.4207 17.4151 44.9484 16.9429 44.3659 16.9429C43.7833 16.9429 43.3111 17.4151 43.3111 17.9977V19.5223H41.7866C41.2041 19.5223 40.7318 19.9945 40.7318 20.577V28.272C40.7318 28.8545 41.2041 29.3268 41.7866 29.3268H43.3111V33.5163C43.3111 34.0988 43.7833 34.5711 44.3659 34.5711C44.9484 34.5711 45.4207 34.0988 45.4207 33.5163V29.3268H46.9452C47.5277 29.3268 48 28.8545 48 28.272V20.5771C48 19.9946 47.5277 19.5223 46.9452 19.5223Z" fill="black"/>
<path d="M18.2132 24.5524H16.6889V17.9979C16.6889 17.4154 16.2166 16.9431 15.6341 16.9431C15.0515 16.9431 14.5793 17.4154 14.5793 17.9979V24.5524H13.0548C12.4722 24.5524 12 25.0246 12 25.6071V33.5165C12 34.099 12.4722 34.5713 13.0548 34.5713H14.5793V36.0959C14.5793 36.6784 15.0515 37.1507 15.6341 37.1507C16.2166 37.1507 16.6889 36.6784 16.6889 36.0959V34.5713H18.2133C18.7958 34.5713 19.2681 34.099 19.2681 33.5165V25.6071C19.268 25.0246 18.7958 24.5524 18.2132 24.5524Z" fill="black"/>
</g>
<defs>
<clipPath id="clip0_2475_307">
<rect width="36" height="36" fill="white" transform="translate(12 11.6262)"/>
</clipPath>
</defs>
</svg>
