<svg width="61" height="60" viewBox="0 0 61 60" fill="none" xmlns="http://www.w3.org/2000/svg">
<circle cx="30.1666" cy="30" r="30" fill="#34E834"/>
<g clip-path="url(#clip0_2475_319)">
<path d="M30.1666 46.5C32.1448 46.5 33.8483 45.3051 34.5958 43.5996H25.7375C26.485 45.3051 28.1885 46.5 30.1666 46.5Z" fill="black"/>
<path d="M40.1569 29.4755V27.3574C40.1569 22.8572 37.1655 19.0429 33.067 17.7971V16.4004C33.067 14.8011 31.7659 13.5 30.1666 13.5C28.5674 13.5 27.2663 14.8011 27.2663 16.4004V17.7971C23.1677 19.0429 20.1764 22.8571 20.1764 27.3574V29.4755C20.1764 33.4285 18.6696 37.1769 15.9337 40.0301C15.6655 40.3097 15.5902 40.7222 15.7422 41.0785C15.8941 41.4348 16.2441 41.666 16.6315 41.666H43.7018C44.0892 41.666 44.4391 41.4348 44.5911 41.0785C44.743 40.7222 44.6677 40.3097 44.3996 40.0301C41.6637 37.1769 40.1569 33.4285 40.1569 29.4755ZM31.1334 17.4141C30.8152 17.3834 30.4928 17.3672 30.1666 17.3672C29.8405 17.3672 29.5181 17.3834 29.1998 17.4141V16.4004C29.1998 15.8673 29.6336 15.4336 30.1666 15.4336C30.6997 15.4336 31.1334 15.8673 31.1334 16.4004V17.4141Z" fill="black"/>
<path d="M42.735 27.3575C42.735 27.8914 43.1679 28.3243 43.7018 28.3243C44.2357 28.3243 44.6686 27.8914 44.6686 27.3575C44.6686 23.4838 43.1601 19.842 40.4211 17.103C40.0436 16.7255 39.4314 16.7254 39.0538 17.103C38.6763 17.4805 38.6763 18.0927 39.0538 18.4702C41.4277 20.8441 42.735 24.0003 42.735 27.3575Z" fill="black"/>
<path d="M16.6315 28.3242C17.1654 28.3242 17.5983 27.8914 17.5983 27.3574C17.5983 24.0003 18.9056 20.8441 21.2794 18.4702C21.657 18.0927 21.657 17.4806 21.2794 17.103C20.9019 16.7254 20.2898 16.7254 19.9122 17.103C17.1731 19.8421 15.6647 23.4838 15.6647 27.3574C15.6647 27.8914 16.0975 28.3242 16.6315 28.3242Z" fill="black"/>
</g>
<defs>
<clipPath id="clip0_2475_319">
<rect width="33" height="33" fill="white" transform="translate(13.6666 13.5)"/>
</clipPath>
</defs>
</svg>
