<svg width="61" height="60" viewBox="0 0 61 60" fill="none" xmlns="http://www.w3.org/2000/svg">
<g id="Icon_Features_01">
<circle id="Ellipse 90" cx="30.8333" cy="30" r="30" fill="#34E834"/>
<g id="Group">
<path id="Vector" d="M49.7537 30L45.4699 25.2439L46.1407 18.8768L39.8767 17.5507L36.6815 12L30.8334 14.6136L24.9852 12L21.79 17.5507L15.5261 18.8768L16.1967 25.2439L11.913 30L16.1967 34.7561L15.526 41.1232L21.7899 42.4493L24.9852 48L30.8333 45.3863L36.6814 48L39.8767 42.4493L46.1406 41.1232L45.4699 34.7561L49.7537 30ZM38.7652 25.8572L29.268 36.4975L22.6684 29.898L24.2381 28.3282L29.1763 33.2664L37.1091 24.379L38.7652 25.8572Z" fill="black"/>
</g>
</g>
</svg>
