<svg width="61" height="60" viewBox="0 0 61 60" fill="none" xmlns="http://www.w3.org/2000/svg">
<circle cx="30.5" cy="30" r="30" fill="#34E834"/>
<g clip-path="url(#clip0_2475_297)">
<path d="M44.2771 21.8341L40.2533 25.2832L34.661 17.8263C34.1988 17.211 33.2407 17.2896 32.8926 17.9856L27.2792 29.2125L22.0421 23.9755C21.5861 23.5195 20.8402 23.5858 20.4647 24.0933L16.0869 30.0214V19.6697C16.0869 19.0933 15.6196 18.6262 15.0435 18.6262C14.4674 18.6262 14 19.0933 14 19.6697C14 25.9762 14 38.9689 14 45.5828C14 46.1592 14.4674 46.6262 15.0435 46.6262H44.9566C45.5326 46.6262 46.0001 46.1592 46.0001 45.5827C46.0001 36.3663 46.0001 29.8398 46.0001 22.6262C46 21.734 44.9507 21.2565 44.2771 21.8341ZM43.9131 32.581L40.2534 35.7179L34.661 28.2611C34.1966 27.643 33.2397 27.7262 32.8926 28.4204L27.2792 39.6473L22.0421 34.4103C21.5824 33.9505 20.8371 34.0248 20.4647 34.5281L16.0869 40.4562V33.5348L21.4239 26.3082L26.8275 31.7118C27.3317 32.2168 28.1818 32.0737 28.4987 31.4408L34.0041 20.4292L39.2521 27.4262C39.6162 27.9116 40.3113 27.9825 40.7664 27.5923L43.9131 24.8949V32.581Z" fill="black"/>
</g>
<defs>
<clipPath id="clip0_2475_297">
<rect width="32" height="32" fill="white" transform="translate(14 14.6262)"/>
</clipPath>
</defs>
</svg>
