<svg width="61" height="60" viewBox="0 0 61 60" fill="none" xmlns="http://www.w3.org/2000/svg">
<circle cx="30.1666" cy="30" r="30" fill="#34E834"/>
<g clip-path="url(#clip0_2475_350)">
<path d="M29.9446 16.3394C22.1602 16.3394 15.8274 21.9269 15.8274 28.7957C15.8274 31.6974 16.9757 34.509 19.0656 36.7375C19.4792 38.443 18.9771 40.2498 17.7315 41.4954C17.2107 42.0163 17.579 42.913 18.3187 42.913C20.6851 42.913 22.9663 41.9861 24.6612 40.3512C26.3383 40.9496 28.1127 41.2521 29.9446 41.2521C37.7291 41.2521 44.1726 35.6646 44.1726 28.7957C44.1726 21.9269 37.7291 16.3394 29.9446 16.3394ZM23.412 31.287C22.0382 31.287 20.9207 30.1695 20.9207 28.7957C20.9207 27.422 22.0382 26.3045 23.412 26.3045C24.7857 26.3045 25.9032 27.422 25.9032 28.7957C25.9032 30.1695 24.7857 31.287 23.412 31.287ZM30.0554 31.287C28.6816 31.287 27.5641 30.1695 27.5641 28.7957C27.5641 27.422 28.6816 26.3045 30.0554 26.3045C31.4291 26.3045 32.5466 27.422 32.5466 28.7957C32.5466 30.1695 31.4291 31.287 30.0554 31.287ZM36.6988 31.287C35.325 31.287 34.2075 30.1695 34.2075 28.7957C34.2075 27.422 35.325 26.3045 36.6988 26.3045C38.0725 26.3045 39.1901 27.422 39.1901 28.7957C39.1901 30.1695 38.0725 31.287 36.6988 31.287Z" fill="black"/>
</g>
<defs>
<clipPath id="clip0_2475_350">
<rect width="28.3452" height="28.3452" fill="white" transform="translate(15.8274 15.4536)"/>
</clipPath>
</defs>
</svg>
