<svg width="200" height="56" viewBox="0 0 200 56" fill="none" xmlns="http://www.w3.org/2000/svg">
<g clip-path="url(#clip0_352_883)">
<path d="M188.811 0.0273438H11.1888C5.0094 0.0273438 0 5.03675 0 11.2162V44.7826C0 50.962 5.0094 55.9714 11.1888 55.9714H188.811C194.991 55.9714 200 50.962 200 44.7826V11.2162C200 5.03675 194.991 0.0273438 188.811 0.0273438Z" fill="#E0E3EB"/>
<path fill-rule="evenodd" clip-rule="evenodd" d="M32.1679 40.5869H22.3777V25.2023H12.5875V15.4121H32.1679V40.5869ZM62.2379 15.4121L51.7484 40.5869H40.5596L51.0491 15.4121H62.2379ZM40.5596 26.6009C43.6505 26.6009 46.154 24.0974 46.154 21.0065C46.154 17.9156 43.6505 15.4121 40.5596 15.4121C37.4686 15.4121 34.9651 17.9156 34.9651 21.0065C34.9651 24.0974 37.4686 26.6009 40.5596 26.6009Z" fill="#131722"/>
<mask id="mask0_352_883" style="mask-type:luminance" maskUnits="userSpaceOnUse" x="65" y="5" width="126" height="46">
<path d="M190.21 5.62207H65.7344V50.3773H190.21V5.62207Z" fill="white"/>
</mask>
<g mask="url(#mask0_352_883)">
<path d="M76.1956 41.9168H78.8809V31.4133H82.3914V28.8818H72.741V31.4133H76.2095V41.9168H76.1956Z" fill="#131722"/>
<path d="M82.3908 41.9159H84.9083V37.5243C84.9083 35.9999 85.6915 35.0768 86.8943 35.0768C87.3139 35.0768 87.6496 35.1467 88.0272 35.2726V32.7271C87.7195 32.6292 87.4538 32.6152 87.188 32.6152C86.1671 32.6152 85.23 33.3006 84.9083 34.1957V32.7271H82.3908V41.9019V41.9159Z" fill="#131722"/>
<path d="M92.8525 42.112C94.1252 42.112 95.0762 41.4686 95.4958 40.8812V41.9022H98.0133V32.7274H95.4958V33.7483C95.0762 33.1609 94.1252 32.5176 92.8525 32.5176C90.4049 32.5176 88.5448 34.7134 88.5448 37.3008C88.5448 39.8882 90.4189 42.084 92.8525 42.084V42.112ZM93.3839 39.8183C91.9853 39.8183 91.0762 38.7693 91.0762 37.3288C91.0762 35.8882 91.9993 34.8393 93.3839 34.8393C94.7685 34.8393 95.6916 35.8882 95.6916 37.3288C95.6916 38.7693 94.7685 39.8183 93.3839 39.8183Z" fill="#131722"/>
<path d="M103.985 42.1127C105.258 42.1127 106.209 41.4693 106.629 40.8819V41.9029H109.146V28.1406H106.629V33.749C106.209 33.1616 105.258 32.5182 103.985 32.5182C101.538 32.5182 99.6776 34.7141 99.6776 37.3015C99.6776 39.8889 101.552 42.0847 103.985 42.0847V42.1127ZM104.517 39.8189C103.118 39.8189 102.209 38.77 102.209 37.3294C102.209 35.8889 103.132 34.8399 104.517 34.8399C105.901 34.8399 106.824 35.8889 106.824 37.3294C106.824 38.77 105.901 39.8189 104.517 39.8189Z" fill="#131722"/>
<path d="M112.657 31.2308C113.552 31.2308 114.265 30.5175 114.265 29.6364C114.265 28.7553 113.552 28.042 112.657 28.042C111.762 28.042 111.062 28.7553 111.062 29.6364C111.062 30.5175 111.79 31.2308 112.657 31.2308ZM111.412 41.9161H113.929V32.7413H111.412V41.9161Z" fill="#131722"/>
<path d="M116.153 41.9165H118.671V37.441C118.671 35.6788 119.538 34.8396 120.713 34.8396C121.762 34.8396 122.321 35.6508 122.321 36.9655V41.9165H124.839V36.5459C124.839 34.1543 123.524 32.5459 121.3 32.5459C120.111 32.5459 119.174 33.0634 118.671 33.7907V32.7417H116.153V41.9165Z" fill="#131722"/>
<path d="M131.23 39.5246C129.957 39.5246 128.894 38.5735 128.894 37.1749C128.894 35.7763 129.957 34.8253 131.23 34.8253C132.503 34.8253 133.566 35.7623 133.566 37.1749C133.566 38.5875 132.503 39.5246 131.23 39.5246ZM130.936 45.9302C133.747 45.9302 135.873 44.5036 135.873 41.1889V32.7274H133.356V33.7483C132.866 33.0351 131.873 32.5176 130.698 32.5176C128.293 32.5176 126.363 34.5735 126.363 37.1609C126.363 39.7483 128.293 41.7903 130.698 41.7903C131.873 41.7903 132.866 41.2588 133.356 40.5735V41.2029C133.356 42.6714 132.377 43.7204 130.894 43.7204C129.873 43.7204 128.838 43.3707 128.027 42.5875L126.657 44.4616C127.705 45.4686 129.342 45.9302 130.936 45.9302Z" fill="#131722"/>
<path d="M141.188 41.9168H143.552L148.95 28.8818H146.013L142.377 37.9308L138.685 28.8818H135.803L141.174 41.9168H141.188Z" fill="#131722"/>
<path d="M151.258 31.2308C152.153 31.2308 152.867 30.5175 152.867 29.6364C152.867 28.7553 152.153 28.042 151.258 28.042C150.363 28.042 149.664 28.7553 149.664 29.6364C149.664 30.5175 150.391 31.2308 151.258 31.2308ZM150.013 41.9161H152.531V32.7413H150.013V41.9161Z" fill="#131722"/>
<path d="M159.035 42.1117C160.965 42.1117 162.433 41.3005 163.287 40.0557L161.412 38.6571C160.993 39.3005 160.196 39.818 159.049 39.818C157.902 39.818 156.755 39.1326 156.601 37.9159H163.468C163.524 37.5243 163.51 37.2725 163.51 37.0487C163.51 34.0557 161.398 32.5312 158.993 32.5312C156.196 32.5312 154.168 34.6012 154.168 37.3145C154.168 40.2096 156.294 42.0977 159.035 42.0977V42.1117ZM156.699 36.1956C156.937 35.0767 157.986 34.6012 158.923 34.6012C159.86 34.6012 160.783 35.0907 160.993 36.1956H156.699Z" fill="#131722"/>
<path d="M172.922 41.916H175.426L178.447 32.7412H175.748L174.027 38.6153L172.153 32.7412H170.223L168.377 38.6153L166.629 32.7412H163.943L166.992 41.916H169.482L171.188 36.6993L172.908 41.916H172.922Z" fill="#131722"/>
<path d="M75.4123 22.4061H76.8109V15.2592H79.2864V13.9165H72.9507V15.2592H75.4123V22.4061ZM80.0696 22.4061H81.4682V18.6718H82.0976L85.2025 22.4061H86.9228L83.7619 18.5879C84.9787 18.2942 85.692 17.5249 85.692 16.3221C85.692 14.9235 84.699 13.9026 83.1186 13.9026H80.0556V22.3921L80.0696 22.4061ZM81.4682 17.455V15.2033H82.9647C83.7899 15.2033 84.3074 15.5949 84.3074 16.3221C84.3074 17.0494 83.7899 17.441 82.9647 17.441H81.4682V17.455ZM86.3074 22.4061H87.7479L88.699 20.1823H92.5032L93.4682 22.4061H94.9228L91.2165 13.9165H89.9997L86.2934 22.4061H86.3074ZM89.2444 18.9375L90.6151 15.7907L91.9717 18.9375H89.2444ZM95.5521 22.4061H98.1535C100.671 22.4061 102.601 20.5599 102.601 18.1543C102.601 15.7487 100.671 13.9026 98.1535 13.9026H95.5521V22.3921V22.4061ZM96.9507 21.1054V15.2172H98.1535C99.9717 15.2172 101.175 16.504 101.175 18.1543C101.175 19.8047 99.9717 21.0914 98.1535 21.0914H96.9507V21.1054ZM103.664 22.4061H108.769V21.0634H105.063V18.7697H108.056V17.427H105.063V15.2452H108.769V13.9026H103.664V22.3921V22.4061ZM120.475 18.1543C120.475 15.7068 118.517 13.7627 116.084 13.7627C113.65 13.7627 111.692 15.7068 111.692 18.1543C111.692 20.6019 113.636 22.5459 116.084 22.5459C118.531 22.5459 120.475 20.6019 120.475 18.1543ZM113.105 18.1543C113.105 16.462 114.391 15.1193 116.084 15.1193C117.776 15.1193 119.049 16.476 119.049 18.1543C119.049 19.8326 117.762 21.1893 116.084 21.1893C114.405 21.1893 113.105 19.8326 113.105 18.1543ZM128.937 22.4061V13.9165H127.524V20.0005L122.755 13.9165H121.538V22.4061H122.937V16.2942L127.72 22.4061H128.937Z" fill="#131722"/>
</g>
</g>
<defs>
<clipPath id="clip0_352_883">
<rect width="200" height="55.9441" fill="white" transform="translate(0 0.0273438)"/>
</clipPath>
</defs>
</svg>
